<svg xmlns="http://www.w3.org/2000/svg" id="Layer_1" data-name="Layer 1" viewBox="0 0 1317.64 971.06" width="100%" height="100%"  xmlns:xlink="http://www.w3.org/1999/xlink"><defs id="svgEditorDefs"><symbol id="1f56f" viewBox="0 0 64 64" preserveAspectRatio="xMidYMid meet"><rect x="0" y="0" width="64" height="64" style="stroke:none;fill:none;"/><g xmlns="http://www.w3.org/2000/svg"><ellipse cx="32" cy="55.13" fill="#a29b95" rx="17.886" ry="6.866"/><ellipse cx="32" cy="53.55" fill="#dddad5" rx="16.498" ry="5.285"/><ellipse cx="32" cy="51.22" fill="#a29b95" rx="10.5" ry="4.221"/><ellipse cx="32" cy="50.604" fill="#dddad5" rx="9.848" ry="3.01"/><ellipse cx="32" cy="42.534" fill="#a29b95" rx="10.5" ry="8.628"/><ellipse cx="32" cy="40.833" fill="#dddad5" rx="8.923" ry="6.927"/><ellipse cx="32" cy="36.27" fill="#a29b95" rx="11.454" ry="4.42"/><ellipse cx="32" cy="35.38" fill="#dddad5" rx="10.164" ry="3.479"/><ellipse cx="32" cy="29.431" fill="#a29b95" rx="21" ry="6.866"/><ellipse cx="32" cy="27.85" fill="#dddad5" rx="19.37" ry="5.285"/><g fill="#dfcea3"><ellipse cx="32" cy="26.689" rx="12.409" ry="3.474"/><path d="m19.591 12.139h24.818v14.55h-24.818z"/></g><ellipse cx="32" cy="12.139" fill="#fff6d7" rx="12.409" ry="3.474"/><ellipse cx="32" cy="12.936" fill="#efd8b1" rx="9.418" ry="2.637"/><path d="m31.536 12.498c-2 0-3.872-1-1.735-4.792 2.136-3.79 2.819-4.632 2.819-5.708-.001 0 6.357 10.5-1.084 10.5" fill="#ed4c5c"/><path d="m32.06 10.814c.16.62.226 1.254.367 1.875.077.328.095.618-.039.939-.054.143-.212.553-.421.52-.16-.024-.333-.527-.371-.643-.115-.372-.005-.661.045-1.024.031-.211.197-1.704.419-1.667" fill="#8f9496"/><path d="m31.702 12.482c-1.277 0-2.476-.642-1.107-3.065 1.365-2.422 1.803-2.961 1.803-3.651-.001 0 4.062 6.716-.696 6.716" fill="#ffce31"/><path d="m31.642 12.482c0 0 .144-1.697.358-1.697.257 0 .38 1.643.38 1.643s-.344.054-.738.054" fill="#3e4347"/></g></symbol></defs><rect id="svgEditorBackground" x="0" y="0" width="1317.6400146484375" height="971.0599975585938" style="fill: none; stroke: none;"/>
    <defs>
        <style>
            .acloCls-1 {
                fill: #4aa8dd;
            }

            .acloCls-2 {
                fill: #e2e2e2;
            }

            .acloCls-3,
            .acloCls-8 {
                fill: #445772;
            }

            .acloCls-4 {
                fill: #b2b2b2;
            }

            .acloCls-5,
            .acloCls-6 {
                fill: #fff;
            }

            .acloCls-6,
            .acloCls-8 {
                font-size: 40px;
                font-family: HelvNeue Roman for IBM;
                weight: 600;
                letter-spacing: 2px;
            }
        </style>
    </defs>
    <title>ac lo</title>
    <rect class="acloCls-1" x="11.35" y="9.4" width="1296.16" height="951.7" rx="33.69" ry="33.69"/>
    <g id="fan">
        <circle class="acloCls-2" cx="659.43" cy="443.49" r="308.98"/>
        <circle class="acloCls-3" cx="659.43" cy="443.49" r="275.54"/>
        <circle class="acloCls-2" cx="659.43" cy="443.49" r="256.82"/>
        
        
        
        
    </g>
    
    <rect class="acloCls-3" x="490.82" y="841.01" width="328.24" height="70.2846" rx="26.76" ry="26.76" />
    <text class="acloCls-6" transform="translate(562 884)">Air-freshner</text>
    
<use href="#1f56f" id="e317_emoji" width="251.47" height="312.08" x="536.309" y="297.895" /></svg>